Coordinates
version=1
nRows=49
nColumns=12
inDegrees=yes

Units are S.I. units (second, meters, Newtons, ...)
Angles are in degrees

endheader
time	SC_y	SC_z	SC_x	AC_y	AC_z	AC_x	GH_y	GH_z	GH_yy	EL_x	PS_y
       0.0               -34.9          7.697          14.07          60.99         -13.01         -10.39          75.46          63.87          126.1          79.65          68.27
  0.005705               -34.9          7.698          14.07          60.99         -13.01         -10.38          75.45          63.87          126.0          79.64          68.27
   0.01141              -34.89          7.699          14.08           61.0         -13.01         -10.38          75.43          63.87          126.0          79.63          68.27
   0.01712              -34.89          7.701          14.08           61.0         -13.01         -10.38          75.41          63.87          126.0          79.62          68.28
   0.02282              -34.89          7.702          14.09           61.0         -13.01         -10.38           75.4          63.87          126.0          79.62          68.28
   0.02853              -34.88          7.703          14.09           61.0          -13.0         -10.38          75.38          63.87          126.0          79.61          68.29
   0.03423              -34.88          7.705           14.1           61.0          -13.0         -10.38          75.35          63.87          125.9           79.6          68.29
   0.03994              -34.87          7.706           14.1           61.0          -13.0         -10.37          75.33          63.88          125.9          79.59           68.3
   0.04564              -34.87          7.708          14.11          61.01          -13.0         -10.37          75.31          63.88          125.9          79.57           68.3
   0.05135              -34.86           7.71          14.12          61.01          -13.0         -10.37          75.28          63.88          125.9          79.56          68.31
   0.05705              -34.86          7.712          14.13          61.01         -12.99         -10.37          75.25          63.88          125.8          79.55          68.31
   0.06276              -34.85          7.714          14.13          61.01         -12.99         -10.36          75.22          63.88          125.8          79.53          68.32
   0.06846              -34.84          7.716          14.14          61.02         -12.99         -10.36          75.19          63.89          125.7          79.52          68.33
   0.07417              -34.84          7.719          14.15          61.02         -12.98         -10.36          75.15          63.89          125.7           79.5          68.33
   0.07987              -34.83          7.721          14.16          61.02         -12.98         -10.35          75.12          63.89          125.7          79.48          68.34
   0.08558              -34.82          7.724          14.17          61.02         -12.97         -10.35          75.07          63.89          125.6          79.46          68.35
   0.09128              -34.81          7.728          14.19          61.03         -12.97         -10.35          75.03           63.9          125.6          79.44          68.36
   0.09699               -34.8          7.731           14.2          61.03         -12.97         -10.34          74.98           63.9          125.5          79.42          68.37
    0.1027              -34.79          7.735          14.21          61.04         -12.96         -10.34          74.93           63.9          125.4          79.39          68.38
    0.1084              -34.78          7.739          14.23          61.04         -12.95         -10.33          74.87          63.91          125.4          79.36           68.4
    0.1141              -34.76          7.743          14.25          61.05         -12.95         -10.33           74.8          63.91          125.3          79.33          68.41
    0.1198              -34.75          7.748          14.27          61.05         -12.94         -10.32          74.73          63.91          125.2           79.3          68.43
    0.1255              -34.73          7.754          14.29          61.06         -12.93         -10.31          74.65          63.92          125.1          79.26          68.44
    0.1312              -34.71           7.76          14.31          61.07         -12.92          -10.3          74.56          63.92          125.0          79.22          68.46
    0.1369              -34.69          7.767          14.34          61.07         -12.91          -10.3          74.47          63.93          124.9          79.17          68.48
    0.1426              -34.67          7.774          14.37          61.08          -12.9         -10.29          74.36          63.94          124.8          79.12          68.51
    0.1483              -34.65          7.782           14.4          61.09         -12.89         -10.27          74.24          63.94          124.7          79.06          68.53
     0.154              -34.62          7.792          14.43           61.1         -12.88         -10.26           74.1          63.95          124.5           79.0          68.56
    0.1597              -34.59          7.803          14.48          61.12         -12.86         -10.25          73.95          63.96          124.3          78.92          68.59
    0.1654              -34.55          7.815          14.52          61.13         -12.85         -10.23          73.77          63.97          124.1          78.84          68.63
    0.1712              -34.51          7.829          14.58          61.15         -12.83         -10.21          73.58          63.99          123.9          78.75          68.68
    0.1769              -34.46          7.845          14.64          61.17          -12.8         -10.19          73.35           64.0          123.6          78.64          68.73
    0.1826              -34.41          7.863          14.71          61.19         -12.78         -10.17          73.08          64.02          123.3          78.51          68.78
    0.1883              -34.34          7.884          14.79          61.21         -12.75         -10.14          72.78          64.04          123.0          78.36          68.85
     0.194              -34.27          7.909          14.89          61.24         -12.71         -10.11          72.42          64.06          122.6          78.19          68.93
    0.1997              -34.18          7.939           15.0          61.27         -12.67         -10.07          71.99          64.09          122.1          77.99          69.02
    0.2054              -34.07          7.974          15.14          61.32         -12.62         -10.03          71.49          64.12          121.5          77.75          69.13
    0.2111              -33.95          8.016           15.3          61.36         -12.56         -9.972          70.89          64.15          120.8          77.46          69.26
    0.2168               -33.8          8.067           15.5          61.42         -12.49         -9.906          70.16           64.2          120.0          77.11          69.42
    0.2225              -33.61          8.129          15.74           61.5          -12.4         -9.826          69.27          64.26          118.9          76.68          69.61
    0.2282              -33.38          8.205          16.03          61.59         -12.29         -9.727          68.17          64.32          117.7          76.16          69.85
    0.2339               -33.1          8.301           16.4           61.7         -12.15         -9.603           66.8          64.41          116.1           75.5          70.14
    0.2396              -32.74          8.421          16.87          61.84         -11.98         -9.447          65.07          64.52          114.1          74.68          70.52
    0.2453              -32.28          8.574          17.46          62.02         -11.76         -9.249          62.87          64.66          111.6          73.63          70.99
     0.251               -31.7           8.77          18.22          62.24         -11.48         -8.995          60.06          64.83          108.3          72.28           71.6
    0.2567              -30.94          9.022          19.19          62.54         -11.13         -8.669          56.46          65.06          104.2          70.56          72.38
    0.2624              -29.99          9.343          20.43          62.91         -10.67         -8.253          51.85          65.35          98.88          68.35          73.38
    0.2681              -28.78          9.746          21.99          63.38         -10.09         -7.731          46.06          65.71          92.21          65.58          74.63
    0.2738              -27.31          10.24          23.89          63.95         -9.394         -7.093           39.0          66.15          84.08           62.2          76.16
